<svg width="23" height="22" viewBox="0 0 23 22" fill="none" xmlns="http://www.w3.org/2000/svg">
<path d="M11.5955 7.24244C9.60026 7.24244 7.97201 8.87072 7.97201 10.866C7.97201 12.8612 9.60026 14.4895 11.5955 14.4895C13.5907 14.4895 15.2189 12.8612 15.2189 10.866C15.2189 8.87072 13.5907 7.24244 11.5955 7.24244ZM22.4632 10.866C22.4632 9.36545 22.4767 7.87853 22.3925 6.38073C22.3082 4.641 21.9113 3.09699 20.6392 1.82481C19.3643 0.549911 17.8231 0.155753 16.0834 0.0714851C14.5829 -0.0127831 13.096 0.000808551 11.5982 0.000808551C10.0977 0.000808551 8.6108 -0.0127831 7.11303 0.0714851C5.37333 0.155753 3.82935 0.552629 2.5572 1.82481C1.28232 3.0997 0.888172 4.641 0.803906 6.38073C0.719639 7.88125 0.73323 9.36817 0.73323 10.866C0.73323 12.3638 0.719639 13.8534 0.803906 15.3512C0.888172 17.0909 1.28504 18.635 2.5572 19.9071C3.83207 21.182 5.37333 21.5762 7.11303 21.6605C8.61352 21.7447 10.1004 21.7311 11.5982 21.7311C13.0987 21.7311 14.5856 21.7447 16.0834 21.6605C17.8231 21.5762 19.367 21.1793 20.6392 19.9071C21.9141 18.6322 22.3082 17.0909 22.3925 15.3512C22.4795 13.8534 22.4632 12.3665 22.4632 10.866ZM11.5955 16.4413C8.51023 16.4413 6.02028 13.9513 6.02028 10.866C6.02028 7.78067 8.51023 5.29068 11.5955 5.29068C14.6807 5.29068 17.1707 7.78067 17.1707 10.866C17.1707 13.9513 14.6807 16.4413 11.5955 16.4413ZM17.399 6.36442C16.6787 6.36442 16.0969 5.7827 16.0969 5.06234C16.0969 4.34198 16.6787 3.76026 17.399 3.76026C18.1193 3.76026 18.7011 4.34198 18.7011 5.06234C18.7013 5.23339 18.6677 5.4028 18.6024 5.56088C18.537 5.71895 18.4411 5.86258 18.3202 5.98353C18.1992 6.10448 18.0556 6.20038 17.8975 6.26574C17.7395 6.3311 17.57 6.36463 17.399 6.36442Z" fill="white"/>
</svg>
