<svg width="23" height="23" viewBox="0 0 23 23" fill="none" xmlns="http://www.w3.org/2000/svg">
<path d="M5.07042 22.5368H0.398053V7.49028H5.07042V22.5368ZM2.73142 5.43782C1.23755 5.43782 0.0253906 4.1999 0.0253906 2.70603C0.0253906 1.98835 0.31049 1.30006 0.817969 0.792578C1.32545 0.285099 2.01374 0 2.73142 0C3.4491 0 4.13739 0.285099 4.64487 0.792578C5.15235 1.30006 5.43745 1.98835 5.43745 2.70603C5.43745 4.1999 4.22529 5.43782 2.73142 5.43782ZM22.5574 22.5368H17.8955V15.2124C17.8955 13.4666 17.8601 11.2282 15.4663 11.2282C13.0372 11.2282 12.6645 13.1245 12.6645 15.0868V22.5368H7.99699V7.49028H12.4778V9.54274H12.543C13.1668 8.36036 14.6904 7.11279 16.9634 7.11279C21.6921 7.11279 22.5614 10.2269 22.5614 14.2715V22.5368H22.5574Z" fill="white"/>
</svg>
