<svg width="28" height="22" viewBox="0 0 28 22" fill="none" xmlns="http://www.w3.org/2000/svg">
<path d="M27.0261 2.58148C26.0493 3.00584 24.9864 3.31124 23.8915 3.43019C25.0282 2.75005 25.8795 1.67556 26.2855 0.408291C25.2189 1.04735 24.0503 1.49548 22.8317 1.73278C22.3224 1.18442 21.7064 0.747578 21.0221 0.449464C20.3379 0.151349 19.6 -0.00164527 18.8544 1.33426e-05C15.8379 1.33426e-05 13.4119 2.46254 13.4119 5.48443C13.4119 5.90879 13.463 6.33314 13.546 6.74141C9.02919 6.50352 5.00078 4.33033 2.32263 1.00303C1.83464 1.84246 1.57892 2.79824 1.58207 3.77095C1.58207 5.67411 2.54289 7.35222 4.00805 8.33916C3.14461 8.30491 2.30138 8.0659 1.54696 7.64155V7.70906C1.54696 10.3741 3.41751 12.5827 5.91053 13.0906C5.44244 13.2131 4.96091 13.2757 4.47728 13.2771C4.12296 13.2771 3.7878 13.2417 3.44943 13.1935C4.13892 15.3667 6.14674 16.9451 8.53761 16.9966C6.66705 18.4722 4.32406 19.3401 1.77998 19.3401C1.32351 19.3401 0.902158 19.3241 0.464844 19.2726C2.87805 20.8318 5.74135 21.7319 8.82489 21.7319C18.8352 21.7319 24.3128 13.3799 24.3128 6.13061C24.3128 5.89271 24.3128 5.65482 24.2969 5.41692C25.3567 4.63573 26.2855 3.66808 27.0261 2.58148Z" fill="#E40037"/>
</svg>
